<svg width="375" height="268" viewBox="0 0 375 268" fill="none" xmlns="http://www.w3.org/2000/svg">
<g clip-path="url(#clip0_12_634)">
<rect width="375" height="268" fill="#99BFD4"/>
<path d="M33.5 -47L42.1204 -24.7376L56.0064 -44.1568L58.8196 -20.45L77.0987 -35.8058L73.9279 -12.1442L95.4515 -22.4717L86.4959 -0.342022L109.912 -4.99232L95.734 14.2149L119.571 15.534L101.062 30.6119L123.821 37.8175L102.144 47.8187L122.397 60.458L98.9137 64.7542L115.387 82.033L91.5729 80.3542L103.231 101.187L80.5831 93.6385L86.6946 116.716L66.635 103.772L66.8153 127.645L50.6049 110.119L44.8427 133.286L33.5 112.28L22.1573 133.286L16.3951 110.119L0.184727 127.645L0.364983 103.772L-19.6946 116.716L-13.5831 93.6385L-36.2314 101.187L-24.5729 80.3542L-48.3868 82.033L-31.9137 64.7542L-55.397 60.458L-35.1443 47.8187L-56.8214 37.8175L-34.0617 30.6119L-52.5706 15.534L-28.734 14.2149L-42.9117 -4.99232L-19.4959 -0.342022L-28.4515 -22.4717L-6.92787 -12.1442L-10.0987 -35.8058L8.18039 -20.45L10.9936 -44.1568L24.8796 -24.7376L33.5 -47Z" fill="#FFEF7D"/>
<path d="M254.555 110.644L435.016 171.565L292.026 297.388L254.555 110.644Z" fill="#4D8679"/>
<path d="M352.93 98C357.718 110.94 367.92 121.142 380.859 125.93C367.92 130.718 357.718 140.92 352.93 153.859C348.142 140.92 337.94 130.718 325 125.93C337.94 121.142 348.142 110.94 352.93 98Z" fill="#CFF3E9"/>
</g>
<defs>
<clipPath id="clip0_12_634">
<rect width="375" height="268" fill="white"/>
</clipPath>
</defs>
</svg>
